<?xml version="1.0" encoding="UTF-8" standalone="no"?>
<!DOCTYPE svg PUBLIC "-//W3C//DTD SVG 1.1//EN"
 "http://www.w3.org/Graphics/SVG/1.1/DTD/svg11.dtd">
<!-- Generated by graphviz version 13.1.0 (20250701.0955)
 -->
<!-- Title: tree Pages: 1 -->
<svg width="1358pt" height="116pt"
 viewBox="0.00 0.00 1358.00 116.00" xmlns="http://www.w3.org/2000/svg" xmlns:xlink="http://www.w3.org/1999/xlink">
<g id="graph0" class="graph" transform="scale(1 1) rotate(0) translate(4 112)">
<title>tree</title>
<polygon fill="white" stroke="none" points="-4,4 -4,-112 1354.28,-112 1354.28,4 -4,4"/>
<!-- 0x0 -->
<g id="node1" class="node">
<title>0x0</title>
<ellipse fill="none" stroke="black" cx="693.05" cy="-90" rx="99.46" ry="18"/>
<text xml:space="preserve" text-anchor="middle" x="693.05" y="-84.95" font-family="Times,serif" font-size="14.00">Schema: test_bookstore</text>
</g>
<!-- 0x1 -->
<g id="node2" class="node">
<title>0x1</title>
<ellipse fill="none" stroke="black" cx="125.05" cy="-18" rx="125.05" ry="18"/>
<text xml:space="preserve" text-anchor="middle" x="125.05" y="-12.95" font-family="Times,serif" font-size="14.00">bookstore : tns:BookstoreType</text>
</g>
<!-- 0x0&#45;&gt;0x1 -->
<g id="edge1" class="edge">
<title>0x0&#45;&gt;0x1</title>
<path fill="none" stroke="black" d="M612.04,-79.17C525.04,-68.59 382.75,-51.23 260.05,-36 249.7,-34.71 238.9,-33.37 228.12,-32.02"/>
<polygon fill="black" stroke="black" points="228.77,-28.57 218.41,-30.8 227.9,-35.52 228.77,-28.57"/>
</g>
<!-- 0x2 -->
<g id="node3" class="node">
<title>0x2</title>
<ellipse fill="none" stroke="black" cx="369.05" cy="-18" rx="100.48" ry="18"/>
<text xml:space="preserve" text-anchor="middle" x="369.05" y="-12.95" font-family="Times,serif" font-size="14.00">author : tns:AuthorType</text>
</g>
<!-- 0x0&#45;&gt;0x2 -->
<g id="edge2" class="edge">
<title>0x0&#45;&gt;0x2</title>
<path fill="none" stroke="black" d="M630.96,-75.59C577.22,-63.97 499.4,-47.16 442.56,-34.88"/>
<polygon fill="black" stroke="black" points="443.47,-31.5 432.96,-32.81 442,-38.34 443.47,-31.5"/>
</g>
<!-- 0x3 -->
<g id="node4" class="node">
<title>0x3</title>
<ellipse fill="none" stroke="black" cx="577.05" cy="-18" rx="89.23" ry="18"/>
<text xml:space="preserve" text-anchor="middle" x="577.05" y="-12.95" font-family="Times,serif" font-size="14.00">book : tns:BookType</text>
</g>
<!-- 0x0&#45;&gt;0x3 -->
<g id="edge3" class="edge">
<title>0x0&#45;&gt;0x3</title>
<path fill="none" stroke="black" d="M665.27,-72.23C649.8,-62.9 630.36,-51.17 613.67,-41.1"/>
<polygon fill="black" stroke="black" points="615.88,-38.34 605.51,-36.17 612.26,-44.33 615.88,-38.34"/>
</g>
<!-- 0x4 -->
<g id="node5" class="node">
<title>0x4</title>
<ellipse fill="none" stroke="black" cx="809.05" cy="-18" rx="125.05" ry="18"/>
<text xml:space="preserve" text-anchor="middle" x="809.05" y="-12.95" font-family="Times,serif" font-size="14.00">bookstore : tns:BookstoreType</text>
</g>
<!-- 0x0&#45;&gt;0x4 -->
<g id="edge4" class="edge">
<title>0x0&#45;&gt;0x4</title>
<path fill="none" stroke="black" d="M720.84,-72.23C735.93,-63.12 754.82,-51.72 771.24,-41.82"/>
<polygon fill="black" stroke="black" points="773.04,-44.82 779.8,-36.65 769.43,-38.82 773.04,-44.82"/>
</g>
<!-- 0x5 -->
<g id="node6" class="node">
<title>0x5</title>
<ellipse fill="none" stroke="black" cx="1053.05" cy="-18" rx="100.48" ry="18"/>
<text xml:space="preserve" text-anchor="middle" x="1053.05" y="-12.95" font-family="Times,serif" font-size="14.00">author : tns:AuthorType</text>
</g>
<!-- 0x0&#45;&gt;0x5 -->
<g id="edge5" class="edge">
<title>0x0&#45;&gt;0x5</title>
<path fill="none" stroke="black" d="M759.08,-76.16C820.29,-64.26 911.38,-46.55 975.91,-34"/>
<polygon fill="black" stroke="black" points="976.2,-37.51 985.35,-32.16 974.86,-30.64 976.2,-37.51"/>
</g>
<!-- 0x6 -->
<g id="node7" class="node">
<title>0x6</title>
<ellipse fill="none" stroke="black" cx="1261.05" cy="-18" rx="89.23" ry="18"/>
<text xml:space="preserve" text-anchor="middle" x="1261.05" y="-12.95" font-family="Times,serif" font-size="14.00">book : tns:BookType</text>
</g>
<!-- 0x0&#45;&gt;0x6 -->
<g id="edge6" class="edge">
<title>0x0&#45;&gt;0x6</title>
<path fill="none" stroke="black" d="M779.25,-80.76C873.47,-71.4 1028.8,-54.95 1162.05,-36 1169.48,-34.94 1177.2,-33.76 1184.91,-32.53"/>
<polygon fill="black" stroke="black" points="1185.37,-36 1194.67,-30.94 1184.24,-29.09 1185.37,-36"/>
</g>
</g>
</svg>
